<svg id="Layer_1" data-name="Layer 1" xmlns="http://www.w3.org/2000/svg" viewBox="0 0 1920 1254"><defs><style>.cls-1{fill:#73a2c7;}.cls-2,.cls-3,.cls-6{fill:none;stroke:#73a2c7;stroke-linecap:round;stroke-miterlimit:10;}.cls-2{stroke-width:45px;}.cls-3{stroke-width:27px;}.cls-4{fill:#875d55;}.cls-5{fill:#c78173;}.cls-6{stroke-width:9px;}.cls-7{opacity:0.82;}.cls-8{fill:#f2f2f2;}</style></defs><title>bgimgcontent2</title><rect class="cls-1" x="-3.14" y="-22" width="1966" height="1304"/><path class="cls-2" d="M1881.86,625c-70.77,88-136.11,114.37-183,122-75.2,12.24-118.73-21-228-24a580.08,580.08,0,0,0-180,24"/><path class="cls-3" d="M1749.86,566.77c-54,67.18-103.87,87.28-139.65,93.1-57.38,9.34-90.6-16.06-174-18.31a442.67,442.67,0,0,0-137.36,18.31"/><path class="cls-2" d="M360.16,1166.31c-107,36.31-176.22,23.46-219.89,4.74-70-30-88.89-81.47-179.51-142.6A580.08,580.08,0,0,0-204,952.11"/><polygon class="cls-4" points="250.8 171 286.8 217 376.8 234 430.8 125 416.8 99 322.8 99 250.8 171"/><polygon class="cls-5" points="250.8 171 315.8 85 416.8 99 358.8 197 250.8 171"/><polygon class="cls-4" points="455.37 120.26 476.73 132.59 514.66 125.03 518.59 73.82 509 65.85 472.19 80.7 455.37 120.26"/><polygon class="cls-5" points="455.37 120.26 467.24 76.32 509 65.85 501.77 113.39 455.37 120.26"/><polygon class="cls-4" points="432.4 190.58 437.77 214.65 468.98 237.48 509.37 205.75 508.75 193.29 472.93 176.22 432.4 190.58"/><polygon class="cls-5" points="432.4 190.58 472.8 169.61 508.75 193.29 468.84 220.11 432.4 190.58"/><polygon class="cls-4" points="1479.25 145.42 1473.89 121.35 1442.67 98.52 1402.29 130.25 1402.9 142.71 1438.73 159.78 1479.25 145.42"/><polygon class="cls-5" points="1479.25 145.42 1438.85 166.39 1402.9 142.71 1442.81 115.89 1479.25 145.42"/><polygon class="cls-5" points="1794.86 1237 1639.36 1051.5 1341.36 1206.5 1794.86 1237"/><polygon class="cls-4" points="1639.86 1052 1745.86 1234 1794.86 1237 1639.86 1052"/><polygon class="cls-5" points="1195.35 406.77 1078.02 327.1 934.87 462.15 1195.35 406.77"/><polygon class="cls-4" points="1078.38 327.31 1167.25 412.92 1195.35 406.77 1078.38 327.31"/><polygon class="cls-5" points="805.07 306.79 922.39 386.45 1065.54 251.41 805.07 306.79"/><polygon class="cls-4" points="922.03 386.25 833.16 300.64 805.07 306.79 922.03 386.25"/><path class="cls-3" d="M296.86,251c-29.41,3.61-106.12-42.16-135.5-198.5"/><path class="cls-3" d="M593.86,417c88.2-45.33,140.26-129.12,129-204C706.4,103.52,559.12,43.43,461.86,66"/><circle class="cls-6" cx="503.36" cy="239.5" r="90"/><g class="cls-7"><rect class="cls-8" x="-3.14" y="-22" width="1966" height="1304"/></g></svg>