<svg id="Layer_1" data-name="Layer 1" xmlns="http://www.w3.org/2000/svg" viewBox="0 0 1920 1254"><defs><style>.cls-1{fill:#73a2c7;}.cls-2,.cls-3,.cls-6{fill:none;stroke:#73a2c7;stroke-linecap:round;stroke-miterlimit:10;}.cls-2{stroke-width:45px;}.cls-3{stroke-width:27px;}.cls-4{fill:#875d55;}.cls-5{fill:#c78173;}.cls-6{stroke-width:9px;}.cls-7{opacity:0.82;}.cls-8{fill:#f2f2f2;}</style></defs><title>bgimgcontent</title><rect class="cls-1" x="-23" y="-39" width="1966" height="1304"/><path class="cls-2" d="M58,618c70.77-88,136.11-114.37,183-122,75.2-12.24,118.73,21,228,24a580.08,580.08,0,0,0,180-24"/><path class="cls-3" d="M190,676.23c54-67.18,103.87-87.28,139.65-93.1,57.38-9.34,90.6,16.06,174,18.31A442.67,442.67,0,0,0,641,583.13"/><path class="cls-2" d="M1579.7,76.69c107-36.31,176.22-23.46,219.89-4.74,70,30,88.89,81.47,179.51,142.6a580.08,580.08,0,0,0,164.77,76.34"/><polygon class="cls-4" points="1443 493 1479 539 1569 556 1623 447 1609 421 1515 421 1443 493"/><polygon class="cls-5" points="1443 493 1508 407 1609 421 1551 519 1443 493"/><polygon class="cls-4" points="1647.58 442.26 1668.94 454.59 1706.86 447.03 1710.79 395.82 1701.2 387.85 1664.4 402.7 1647.58 442.26"/><polygon class="cls-5" points="1647.58 442.26 1659.44 398.32 1701.2 387.85 1693.97 435.38 1647.58 442.26"/><polygon class="cls-4" points="1624.61 512.58 1629.97 536.65 1661.19 559.48 1701.57 527.75 1700.96 515.29 1665.13 498.21 1624.61 512.58"/><polygon class="cls-5" points="1624.61 512.58 1665.01 491.61 1700.96 515.29 1661.05 542.11 1624.61 512.58"/><polygon class="cls-4" points="578.61 749.58 583.97 773.65 615.19 796.48 655.57 764.75 654.96 752.29 619.13 735.22 578.61 749.58"/><polygon class="cls-5" points="578.61 749.58 619.01 728.61 654.96 752.29 615.05 779.11 578.61 749.58"/><polygon class="cls-5" points="145 6 300.5 191.5 598.5 36.5 145 6"/><polygon class="cls-4" points="300 191 194 9 145 6 300 191"/><polygon class="cls-5" points="803.55 986.34 686.23 906.67 543.08 1041.72 803.55 986.34"/><polygon class="cls-4" points="686.59 906.87 775.45 992.49 803.55 986.34 686.59 906.87"/><polygon class="cls-5" points="413.27 886.36 530.6 966.02 673.75 830.98 413.27 886.36"/><polygon class="cls-4" points="530.23 965.82 441.37 880.21 413.27 886.36 530.23 965.82"/><path class="cls-3" d="M1643,992c29.41-3.61,106.12,42.16,135.5,198.5"/><path class="cls-3" d="M1346,826c-88.2,45.33-140.26,129.12-129,204,16.46,109.48,163.74,169.57,261,147"/><circle class="cls-6" cx="1436.5" cy="1003.5" r="90"/><g class="cls-7"><rect class="cls-8" x="-23" y="-39" width="1966" height="1304"/></g></svg>